<?xml version="1.0" standalone="no"?>
<!DOCTYPE svg PUBLIC "-//W3C//DTD SVG 20010904//EN"
 "http://www.w3.org/TR/2001/REC-SVG-20010904/DTD/svg10.dtd">
<svg version="1.0" xmlns="http://www.w3.org/2000/svg"
 width="356.000000pt" height="356.000000pt" viewBox="0 0 356.000000 356.000000"
 preserveAspectRatio="xMidYMid meet">
<metadata>
Created by potrace 1.11, written by Peter Selinger 2001-2013
</metadata>
<g transform="translate(0.000000,356.000000) scale(0.100000,-0.100000)"
fill="#000000" stroke="none">
<path d="M1758 3552 c-12 -2 -18 -13 -18 -33 0 -26 -3 -29 -33 -29 -32 0 -32
0 -33 -50 l-1 -50 34 0 c30 0 33 -3 33 -30 0 -27 -3 -30 -30 -30 -66 0 -130
-61 -130 -122 0 -21 -5 -28 -20 -28 -19 0 -25 -18 -21 -56 1 -6 -10 -16 -23
-24 -14 -7 -30 -26 -37 -41 -6 -16 -14 -29 -18 -29 -3 0 -24 16 -46 34 -22 19
-43 32 -46 28 -4 -4 -29 -33 -57 -66 l-49 -59 -74 -2 c-44 -1 -85 4 -100 11
-14 7 -37 10 -50 7 -34 -8 -69 -43 -69 -67 0 -12 -19 -40 -45 -64 -25 -23 -45
-49 -45 -57 0 -11 -20 -15 -92 -17 l-93 -3 -1 -82 c0 -91 -5 -86 74 -85 l42 0
-20 -33 c-40 -64 -30 -147 23 -202 l31 -33 -40 0 c-27 0 -45 6 -57 20 -25 30
-72 24 -77 -10 -5 -32 1 -51 20 -70 l20 -20 -31 -28 c-21 -19 -32 -39 -36 -69
-5 -37 -2 -45 26 -73 l31 -31 -50 -88 c-218 -386 -232 -849 -39 -1234 226
-449 678 -730 1174 -729 343 1 658 125 902 356 220 207 363 485 403 781 14
104 6 340 -15 435 -33 153 -98 313 -180 447 -25 41 -25 42 -5 48 22 7 47 50
45 75 -1 8 -3 22 -3 31 -1 9 -17 31 -34 49 -31 29 -32 32 -16 44 24 17 34 72
18 91 -18 21 -58 19 -72 -5 -9 -15 -24 -20 -52 -20 l-40 0 51 48 c58 54 86
122 85 208 0 55 -18 124 -31 124 -4 0 -23 22 -42 50 -35 51 -53 61 -63 35 -3
-8 -15 -15 -26 -15 -11 0 -21 7 -21 15 -1 8 -3 20 -4 25 -1 6 -3 17 -4 26 -1
12 -7 15 -25 10 -35 -9 -56 3 -56 31 0 36 -42 73 -84 73 -19 0 -38 -4 -41 -10
-11 -18 -43 -10 -59 15 -16 25 -18 25 -45 9 -26 -15 -30 -15 -54 1 -15 9 -34
14 -45 11 -14 -5 -21 -1 -25 14 -3 11 -12 20 -21 20 -8 0 -23 14 -31 30 l-16
31 -31 -25 -32 -24 -40 41 c-25 26 -40 51 -41 67 0 14 -7 26 -16 28 -8 1 -20
21 -27 46 -14 54 -69 106 -112 106 -17 0 -31 5 -31 10 -1 6 -2 16 -3 23 -2 16
14 27 42 27 20 0 22 5 22 50 0 50 0 50 -33 50 -31 0 -34 2 -33 32 1 30 -1 32
-34 32 -19 1 -43 0 -52 -2z m52 -62 c0 -16 5 -31 10 -31 6 -1 15 -3 20 -4 6
-1 16 -3 23 -4 8 0 14 -8 14 -16 0 -14 -22 -20 -54 -16 -9 1 -13 -17 -13 -61
l0 -63 46 -1 c53 -1 88 -29 103 -82 8 -28 7 -32 -8 -32 -11 0 -24 12 -31 29
-18 44 -67 60 -107 35 -19 -12 -26 -11 -52 3 -40 23 -81 9 -101 -34 -19 -41
-56 -47 -46 -7 16 63 75 102 132 88 26 -7 31 6 26 77 -4 47 -5 49 -33 49 -22
0 -29 5 -29 19 0 15 6 18 30 16 28 -2 30 0 30 31 0 27 4 34 20 34 16 0 20 -7
20 -30z m200 -355 c0 -12 -30 -15 -172 -17 -198 -3 -270 2 -276 20 -3 9 46 12
222 12 191 0 226 -2 226 -15z m-86 -72 c-47 -75 -107 -118 -152 -108 -32 7
-96 65 -117 106 -15 27 -14 29 4 29 10 0 25 -10 34 -22 28 -43 70 -78 93 -78
26 0 90 51 99 80 3 10 16 20 28 22 30 5 31 4 11 -29z m-324 7 c24 -24 26 -73
6 -112 -12 -23 -12 -27 1 -32 29 -11 39 -6 52 29 7 19 16 35 21 35 18 0 20
-19 5 -53 -14 -35 -14 -35 16 -46 16 -6 43 -20 60 -32 27 -19 32 -20 47 -5 10
8 35 22 56 31 30 13 37 20 32 36 -3 10 -9 28 -12 39 -11 35 21 23 39 -15 15
-31 20 -34 37 -25 16 9 18 15 10 36 -21 53 -20 81 1 108 26 33 53 33 84 1 33
-32 33 -84 1 -122 l-25 -29 26 -32 c14 -18 30 -29 36 -26 7 4 -3 -9 -21 -28
-55 -58 -56 -131 -2 -189 16 -18 27 -36 25 -40 -6 -9 -137 16 -192 37 -43 17
-45 16 -82 -4 l-37 -21 -35 23 c-27 18 -39 22 -53 14 -18 -10 -55 -23 -116
-39 -19 -5 -83 -12 -142 -16 -92 -5 -108 -3 -108 9 0 12 17 16 78 20 42 2 87
11 99 18 42 27 55 88 28 139 -28 55 -113 65 -174 22 -34 -25 -41 -26 -41 -7 0
30 62 61 124 63 52 1 62 5 82 30 l22 28 -23 25 c-36 38 -38 92 -5 128 26 27
54 28 80 2z m-196 -51 c-2 -4 3 -12 11 -19 8 -7 15 -9 15 -4 0 4 5 3 12 -4 8
-8 8 -15 -2 -27 -16 -19 -30 -19 -30 -1 0 22 -19 30 -35 16 -22 -18 -18 -29
10 -36 29 -7 31 -16 9 -35 -14 -11 -18 -10 -33 10 l-18 23 -26 -31 c-14 -17
-30 -31 -36 -31 -26 0 -7 45 42 103 43 52 55 61 69 53 9 -5 15 -13 12 -17z
m792 -16 c19 -12 22 -18 12 -24 -9 -6 -7 -14 12 -34 l24 -25 22 21 23 21 27
-21 c23 -18 28 -19 47 -6 18 12 23 12 45 -5 30 -24 59 -25 82 -5 28 25 67 4
76 -40 7 -37 28 -55 63 -55 30 0 42 -68 15 -86 -37 -26 -44 -35 -45 -62 -3
-68 -5 -80 -22 -106 -18 -27 -17 -56 1 -56 21 0 32 31 38 103 6 60 11 80 28
94 17 15 18 15 8 1 -15 -19 -3 -31 18 -17 8 5 25 9 38 9 23 0 30 14 12 25 -6
4 -8 11 -4 16 3 5 9 7 14 4 5 -3 12 0 16 6 5 9 11 7 20 -5 10 -14 7 -26 -17
-72 -28 -52 -28 -54 -9 -54 13 0 29 13 42 36 18 31 23 34 35 21 31 -30 23
-197 -9 -197 -6 0 -9 3 -5 6 8 8 -13 65 -31 87 -34 39 -86 1 -60 -45 17 -32
21 -65 9 -86 -8 -13 -9 -10 -5 15 6 29 4 31 -15 26 -11 -3 -21 -8 -22 -12 -2
-20 -10 -58 -14 -68 -8 -23 -27 -14 -23 11 4 19 1 22 -14 18 -11 -3 -25 -17
-31 -31 -6 -14 -12 -27 -13 -29 -3 -6 -34 11 -34 19 0 4 6 6 14 3 9 -3 19 9
30 36 21 52 20 59 -3 53 -12 -3 -20 2 -24 16 -5 19 -29 28 -61 22 -5 -1 -33 4
-62 10 -42 9 -56 9 -68 0 -17 -14 -37 -6 -31 12 3 7 -25 39 -62 72 -36 33 -81
74 -98 92 l-32 32 -22 -29 c-25 -35 -26 -51 -5 -93 17 -32 17 -32 -4 -14 -24
22 -37 80 -23 104 12 22 -3 53 -27 54 -10 0 -12 3 -4 6 6 2 12 10 12 17 0 7
25 36 55 63 30 28 55 55 55 60 0 5 -14 24 -30 42 -24 26 -28 36 -19 47 15 18
24 18 55 -3z m-256 -24 c0 -6 -4 -7 -10 -4 -5 3 -10 11 -10 16 0 6 5 7 10 4 6
-3 10 -11 10 -16z m205 -50 c12 -38 -54 -67 -74 -32 -13 25 27 74 51 62 9 -5
20 -18 23 -30z m-638 -29 c-2 -10 -17 -16 -50 -17 l-48 -2 32 41 32 40 19 -23
c10 -13 17 -31 15 -39z m-419 34 c18 -13 31 -14 69 -6 76 17 88 7 111 -95 17
-73 42 -198 42 -210 0 -2 -9 -3 -20 -3 -31 0 -114 -35 -152 -64 -19 -14 -38
-26 -41 -26 -6 0 -136 160 -170 210 -9 13 -17 30 -17 36 0 12 30 46 73 81 17
14 24 28 21 38 -8 19 23 55 45 55 9 0 27 -7 39 -16z m687 -18 c15 -3 43 1 61
9 50 21 44 -4 -7 -32 l-41 -22 -42 22 c-22 12 -43 23 -45 24 -1 1 0 6 4 12 4
7 12 8 24 2 10 -6 30 -12 46 -15z m-420 -36 c3 -5 -6 -21 -22 -34 -32 -28 -43
-17 -19 19 17 27 31 31 41 15z m130 -101 c20 -18 35 -40 35 -53 0 -25 -48 -76
-76 -80 -22 -4 -54 21 -54 41 0 8 -12 13 -34 13 -35 0 -63 21 -51 40 3 5 24
10 46 10 27 0 39 4 39 14 0 14 36 46 52 46 4 0 23 -14 43 -31z m-570 -49 c19
-21 13 -26 -40 -29 -48 -2 -53 -6 -37 -32 10 -16 10 -20 -3 -25 -8 -4 -22 -3
-31 0 -13 5 -14 9 -4 21 7 8 10 22 6 30 -5 13 -10 14 -27 5 -15 -9 -18 -15
-10 -23 19 -19 13 -39 -11 -35 -18 2 -22 10 -24 48 -1 24 0 48 2 52 3 4 41 7
84 7 62 -1 82 -5 95 -19z m1153 -9 c-7 -9 -14 -18 -15 -20 -2 -2 -3 8 -3 22 0
20 4 25 15 21 13 -5 13 -9 3 -23z m135 -58 c31 -10 18 -24 -20 -21 -33 3 -38
7 -41 33 -4 28 -3 28 20 11 12 -9 31 -19 41 -23z m-1259 4 c16 -12 15 -13 -6
-14 -13 -1 -33 -5 -45 -8 -22 -5 -32 12 -16 28 11 11 48 8 67 -6z m430 -12 c6
-16 -3 -19 -28 -9 -22 8 -20 24 3 24 10 0 21 -7 25 -15z m-414 -40 c0 -9 -9
-15 -22 -15 -35 0 -88 -37 -103 -72 -22 -54 -4 -108 45 -133 52 -27 82 -20
133 33 26 26 53 56 60 66 17 24 41 13 28 -13 -5 -9 -37 -47 -71 -84 -66 -71
-156 -135 -257 -182 -64 -29 -78 -45 -68 -76 8 -25 31 -24 38 1 6 24 22 26 31
5 6 -18 -27 -55 -49 -55 -23 0 -55 37 -55 63 0 34 26 60 95 95 l60 31 -43 1
c-32 0 -49 6 -69 26 -20 20 -23 28 -13 37 9 9 15 7 27 -10 13 -19 25 -23 70
-23 29 0 70 7 91 16 l37 15 -35 15 c-103 44 -128 154 -52 227 45 43 122 63
122 32z m1305 -10 c0 -5 -24 -11 -52 -12 -42 -2 -53 1 -53 13 0 12 11 14 53
12 28 -2 52 -7 52 -13z m-1235 -27 c0 -5 -9 -21 -20 -35 -15 -19 -17 -30 -10
-43 14 -26 12 -46 -6 -64 -20 -21 -97 -21 -114 -1 -18 22 -20 77 -3 103 12 20
20 23 48 18 30 -6 37 -3 56 23 17 24 26 28 36 20 7 -6 13 -16 13 -21z m937 8
c15 -3 42 -8 59 -11 148 -24 378 -125 513 -225 101 -75 212 -183 236 -230 10
-19 26 -41 37 -48 27 -19 85 -114 134 -218 151 -322 158 -705 18 -1032 -117
-273 -309 -484 -574 -629 -90 -49 -228 -100 -340 -124 -138 -30 -380 -33 -510
-5 -313 67 -584 240 -776 496 -263 349 -325 821 -163 1230 43 106 118 237 160
279 20 20 40 46 43 57 16 54 241 241 381 319 122 67 319 130 449 142 33 3 62
7 64 8 6 5 240 -3 269 -9z m-740 -53 c-3 -2 -14 1 -26 9 l-21 13 23 12 c19 10
22 9 25 -9 2 -11 1 -22 -1 -25z m1540 16 c37 -72 1 -155 -82 -194 l-30 -14 37
-15 c38 -16 113 -21 142 -10 9 3 16 12 16 20 0 8 7 14 15 14 23 0 18 -38 -8
-55 -13 -8 -42 -16 -65 -17 l-42 -1 62 -31 c34 -17 71 -43 82 -58 17 -23 17
-31 6 -57 -17 -42 -57 -52 -82 -21 -22 27 -23 50 -3 50 8 0 15 -6 15 -14 0
-24 22 -30 36 -11 22 29 -1 54 -84 92 -83 37 -193 114 -174 121 7 2 12 9 12
17 0 7 17 15 39 19 27 4 47 16 66 38 28 33 30 67 9 137 -9 32 16 24 33 -10z
m-1447 -4 c-36 -14 -66 -25 -66 -25 -1 0 1 11 4 25 4 24 8 25 66 24 l61 0 -65
-24z m996 10 c12 -30 -2 -32 -61 -9 l-60 23 58 0 c42 1 59 -3 63 -14z m-1256
-32 c0 -5 -4 -15 -10 -23 -11 -18 -25 -7 -17 15 6 15 27 21 27 8z m122 -40
c-15 -8 -40 -22 -57 -30 l-30 -16 20 24 c59 72 57 70 77 53 17 -16 17 -18 -10
-31z m1261 3 c15 -19 27 -37 27 -40 0 -4 -83 39 -99 50 -1 1 0 7 4 13 12 21
40 11 68 -23z m62 7 c41 -44 49 -63 27 -63 -22 0 -76 65 -67 80 9 14 11 13 40
-17z m295 -308 c0 -12 -29 -3 -34 10 -4 13 -2 14 14 5 11 -6 20 -13 20 -15z
m-1995 5 c-3 -5 -11 -10 -16 -10 -6 0 -7 5 -4 10 3 6 11 10 16 10 6 0 7 -4 4
-10z"/>
<path d="M1537 3040 c-16 -23 -12 -64 9 -81 18 -15 31 -5 39 31 13 60 -18 92
-48 50z m33 -29 c0 -11 -4 -23 -10 -26 -6 -4 -10 5 -10 19 0 14 5 26 10 26 6
0 10 -9 10 -19z"/>
<path d="M1991 3042 c-13 -24 7 -92 25 -92 31 0 44 68 18 94 -20 21 -31 20
-43 -2z m31 -54 c-9 -9 -12 -4 -11 23 0 32 1 33 11 11 8 -17 8 -26 0 -34z"/>
<path d="M1551 2871 l-21 -29 26 -40 c19 -30 31 -38 47 -35 20 4 22 11 24 63
2 52 -1 59 -20 64 -33 9 -34 8 -56 -23z m55 -37 c-5 -46 -10 -50 -30 -20 -19
29 -12 56 15 56 15 0 17 -6 15 -36z"/>
<path d="M1965 2891 c-16 -7 -19 -16 -16 -62 1 -30 3 -55 4 -55 1 -1 12 -5 25
-8 16 -6 24 -3 29 11 3 10 15 28 26 40 19 22 19 22 -4 52 -25 32 -32 34 -64
22z m37 -73 c-22 -38 -32 -35 -32 11 0 43 18 58 37 32 9 -12 8 -22 -5 -43z"/>
<path d="M1660 2826 c0 -39 2 -44 18 -39 9 4 20 11 23 16 4 6 15 7 24 3 17 -6
17 -8 0 -26 -10 -11 -26 -20 -36 -20 -16 0 -17 -3 -7 -24 16 -38 40 -41 65
-11 33 37 30 78 -8 109 -17 14 -34 26 -39 26 -5 0 -15 3 -24 6 -13 5 -16 -2
-16 -40z m40 4 c0 -5 -4 -10 -10 -10 -5 0 -10 5 -10 10 0 6 5 10 10 10 6 0 10
-4 10 -10z m35 -90 c-3 -5 -10 -10 -16 -10 -5 0 -9 5 -9 10 0 6 7 10 16 10 8
0 12 -4 9 -10z"/>
<path d="M1855 2847 c-45 -25 -55 -58 -35 -107 16 -39 41 -46 62 -20 24 30 23
34 -12 47 -31 12 -42 43 -15 43 8 0 15 -4 15 -10 0 -5 11 -10 24 -10 22 0 24
4 23 40 -2 46 -8 48 -62 17z m45 -17 c0 -5 -4 -10 -9 -10 -6 0 -13 5 -16 10
-3 6 1 10 9 10 9 0 16 -4 16 -10z m-34 -98 c-4 -3 -14 2 -24 12 -16 18 -16 18
6 6 13 -6 21 -14 18 -18z"/>
<path d="M1593 2733 c-7 -2 -13 -14 -13 -24 0 -11 -5 -29 -11 -41 -6 -11 -8
-22 -5 -26 7 -6 116 26 116 34 0 3 -8 19 -17 35 -16 28 -39 35 -70 22z m47
-34 c7 -10 4 -16 -8 -21 -31 -12 -39 -9 -35 16 5 26 29 29 43 5z"/>
<path d="M1911 2709 c-13 -17 -21 -32 -19 -34 7 -6 99 -35 114 -35 11 0 12 4
4 19 -5 11 -10 31 -10 44 0 17 -7 27 -22 31 -37 10 -43 7 -67 -25z m69 -20 c0
-20 -16 -24 -39 -10 -12 8 -12 12 -2 25 16 19 41 10 41 -15z"/>
<path d="M1765 2700 c-17 -19 -17 -22 -2 -37 13 -14 21 -15 42 -5 26 12 26 12
8 37 -22 30 -25 30 -48 5z"/>
<path d="M2277 2920 c-19 -27 -14 -40 14 -40 15 0 19 -7 19 -32 0 -25 3 -29
10 -18 15 24 12 66 -8 90 l-19 23 -16 -23z"/>
<path d="M2367 2893 c-4 -3 -7 -21 -7 -39 0 -25 -9 -43 -40 -73 -39 -39 -51
-78 -32 -107 19 -30 102 -81 149 -92 88 -20 118 2 126 88 4 40 12 60 29 76 33
30 32 42 -6 58 -35 15 -62 49 -51 66 8 13 -30 31 -42 19 -17 -17 -56 -19 -80
-4 -24 16 -36 18 -46 8z m83 -43 c20 0 41 5 48 12 9 9 12 8 12 -8 0 -21 27
-56 57 -73 17 -9 17 -11 0 -23 -13 -10 -21 -34 -26 -77 -4 -36 -14 -67 -22
-72 -18 -12 -126 2 -138 18 -3 5 -23 21 -43 36 -21 15 -38 36 -38 45 0 10 18
35 40 57 24 24 42 52 46 73 5 24 10 30 17 23 6 -6 27 -11 47 -11z"/>
<path d="M2457 2780 c-14 -16 -21 -18 -36 -10 -29 15 -32 13 -19 -14 8 -20 7
-28 -6 -41 -22 -22 -20 -26 8 -19 17 4 28 0 38 -15 16 -23 28 -18 28 11 0 16
16 23 45 19 6 -1 -1 8 -15 20 -16 14 -24 29 -22 45 4 29 1 30 -21 4z"/>
<path d="M2222 2826 c-30 -27 -38 -41 -36 -65 2 -36 9 -48 35 -62 16 -8 20 -7
18 3 -4 31 3 49 29 80 29 34 33 78 6 78 -8 0 -31 -16 -52 -34z m38 -15 c-5
-11 -15 -23 -21 -26 -6 -4 -14 -17 -19 -29 l-9 -21 0 22 c-1 12 9 33 22 47 27
29 41 33 27 7z"/>
<path d="M1049 2909 c0 -2 -2 -15 -5 -29 -2 -14 -22 -41 -44 -61 -40 -37 -48
-53 -30 -64 13 -8 90 44 90 61 0 19 31 33 55 24 25 -9 107 18 102 34 -3 7 -26
10 -67 8 -48 -2 -67 1 -81 14 -11 9 -19 15 -20 13z"/>
<path d="M1137 2776 c-59 -25 -127 -66 -127 -77 0 -4 7 -12 15 -19 11 -9 20
-8 45 10 16 12 30 28 30 35 0 21 37 38 56 27 25 -14 84 7 84 30 0 25 -32 23
-103 -6z"/>
<path d="M1188 2691 c-26 -10 -63 -28 -82 -41 -30 -18 -34 -25 -26 -41 6 -10
15 -19 20 -19 9 0 46 43 52 61 4 12 46 20 53 10 2 -5 16 -6 30 -3 19 3 25 10
23 25 -4 28 -15 29 -70 8z"/>
<path d="M1429 2763 c-6 -40 -4 -75 4 -80 6 -3 21 7 35 22 18 22 21 30 11 34
-8 2 -18 10 -22 17 -9 15 -26 19 -28 7z"/>
<path d="M903 2488 c2 -29 6 -33 35 -34 40 -2 44 26 7 50 -36 23 -45 20 -42
-16z"/>
<path d="M1705 2523 c-27 -3 -44 -7 -38 -11 16 -11 25 -139 10 -146 -6 -3 13
-4 43 -3 44 2 55 6 58 20 4 17 2 18 -20 3 -29 -19 -38 -13 -38 26 0 24 3 28
19 23 11 -3 21 0 24 9 4 11 -1 14 -21 13 -21 -2 -28 3 -30 19 -4 25 27 42 40
22 5 -9 8 -6 8 10 0 12 -1 21 -2 20 -2 -1 -25 -3 -53 -5z"/>
<path d="M1836 2514 c12 -5 7 -110 -7 -136 -8 -16 -5 -18 23 -17 18 0 28 3 22
5 -13 5 -6 54 7 54 4 0 13 -9 19 -19 16 -31 40 -51 60 -51 15 0 13 5 -11 31
-30 32 -36 53 -19 64 17 11 11 54 -9 65 -11 5 -37 10 -58 9 -21 0 -33 -3 -27
-5z m74 -45 c0 -22 -5 -29 -20 -29 -17 0 -20 5 -16 28 2 15 5 30 5 34 1 4 8 5
16 2 9 -4 15 -19 15 -35z"/>
<path d="M1575 2500 c10 -16 -6 -101 -18 -97 -6 2 -21 22 -32 45 -16 33 -24
40 -44 37 -24 -4 -42 -15 -24 -15 5 0 32 -32 58 -70 32 -46 51 -66 55 -58 4 7
13 42 20 78 6 36 17 71 22 78 8 9 4 12 -16 12 -16 0 -25 -4 -21 -10z"/>
<path d="M2031 2473 c-10 -19 1 -58 26 -85 13 -14 13 -21 4 -32 -15 -18 -40
-10 -52 18 -7 18 -8 17 -6 -9 2 -26 7 -30 33 -33 37 -4 65 19 59 48 -2 11 -14
34 -26 51 -17 24 -19 33 -9 39 18 11 40 1 41 -19 0 -12 2 -11 8 4 5 12 4 23
-3 27 -20 14 -65 8 -75 -9z"/>
<path d="M1370 2449 c-15 -6 -20 -13 -14 -17 16 -10 55 -122 48 -134 -4 -7 2
-8 17 -3 32 10 34 12 22 27 -17 21 -45 117 -38 128 8 12 -2 12 -35 -1z"/>
<path d="M2185 2450 c5 -8 -25 -96 -44 -131 -7 -12 -2 -18 19 -26 24 -9 27 -8
23 8 -6 22 25 110 44 125 11 10 8 14 -17 22 -17 6 -28 7 -25 2z"/>
<path d="M1261 2406 c-17 -9 -19 -14 -10 -18 8 -3 24 -24 37 -46 l23 -41 -76
26 c-42 14 -79 23 -82 20 -2 -3 11 -35 31 -72 20 -36 34 -71 30 -76 -4 -8 0
-7 14 0 24 13 39 33 22 29 -6 -2 -22 16 -36 39 l-25 41 77 -24 c43 -13 79 -22
82 -20 2 2 -12 34 -32 71 -20 37 -33 71 -30 76 7 12 4 11 -25 -5z"/>
<path d="M2305 2398 c6 -16 -51 -118 -66 -118 -20 0 3 -21 49 -44 56 -28 89
-25 120 10 41 47 24 93 -52 138 -50 29 -57 31 -51 14z m69 -47 c23 -26 26 -50
10 -82 -17 -33 -51 -43 -81 -23 -23 14 -23 16 -7 47 25 47 45 77 54 77 4 0 15
-9 24 -19z"/>
<path d="M1060 2278 c-12 -8 -7 -18 28 -54 46 -49 53 -77 21 -94 -17 -9 -25
-8 -42 7 -41 36 -66 68 -62 81 7 20 -10 14 -36 -15 -13 -14 -18 -23 -11 -19 8
5 27 -9 53 -38 48 -53 83 -60 117 -23 31 33 28 56 -16 114 -28 38 -41 48 -52
41z"/>
<path d="M1618 2274 c-376 -68 -670 -344 -771 -727 -30 -117 -30 -356 1 -471
142 -517 645 -819 1169 -700 325 73 603 334 702 657 30 100 36 147 36 302 -1
163 -21 256 -85 393 -127 270 -383 476 -666 538 -103 22 -288 26 -386 8z m277
-28 c298 -26 590 -229 730 -506 62 -123 123 -378 94 -396 -10 -6 -899 -7 -905
-1 -3 2 -4 148 -4 323 -1 602 -1 594 13 589 6 -2 39 -6 72 -9z m-125 -450 l0
-456 -27 0 c-177 -3 -877 1 -883 5 -5 3 -7 15 -5 28 2 12 6 45 9 72 26 233
169 473 374 627 127 95 331 172 472 177 l60 2 0 -455z m-2 -683 l2 -192 -30
17 c-33 19 -39 46 -14 73 9 10 17 35 18 56 l1 37 -45 -3 c-33 -2 -53 3 -70 17
-55 42 -121 45 -185 7 -24 -14 -52 -25 -62 -25 -11 1 -3 10 24 26 24 14 40 30
37 36 -3 5 -15 3 -27 -5 -12 -7 -53 -31 -91 -52 -53 -29 -68 -34 -63 -21 4 10
7 23 7 30 0 7 27 34 60 62 56 46 71 64 52 64 -5 0 -30 -20 -58 -45 -49 -45
-82 -62 -49 -25 10 11 15 26 11 35 -3 10 5 30 20 51 32 42 18 45 -21 4 -27
-28 -29 -29 -58 -14 -34 18 -109 24 -150 13 -24 -7 -33 -4 -53 19 -14 17 -23
22 -24 13 0 -8 7 -22 15 -31 14 -15 13 -19 -4 -34 -18 -17 -21 -17 -45 0 -34
22 -46 10 -16 -14 22 -17 23 -22 11 -50 l-13 -30 -34 20 c-19 11 -34 15 -34
10 0 -6 14 -19 30 -29 17 -9 31 -22 31 -28 7 -61 11 -80 24 -104 19 -38 58
-68 107 -83 39 -12 40 -12 34 -52 -20 -138 -16 -159 31 -177 33 -12 80 5 89
33 7 23 -3 172 -15 215 -6 24 -3 31 21 46 16 9 33 29 39 44 6 15 16 31 22 35
16 10 39 10 33 0 -3 -5 2 -21 10 -36 22 -43 17 -62 -21 -85 -59 -34 -36 -88
39 -94 29 -3 42 -10 57 -34 13 -20 16 -34 9 -38 -14 -8 -13 -61 2 -88 6 -12
11 -36 9 -54 -1 -17 3 -42 10 -55 7 -13 14 -33 14 -46 1 -12 9 -30 18 -40 10
-10 17 -23 17 -29 0 -12 36 -24 53 -17 16 6 51 65 53 89 1 11 9 33 17 48 10
20 13 38 7 56 -5 18 -3 33 6 46 16 22 19 81 4 90 -5 3 -1 19 10 37 15 25 26
32 55 34 20 1 44 9 55 19 20 18 20 16 20 -233 l0 -250 -62 4 c-395 28 -757
350 -832 740 -15 77 -26 171 -20 176 1 2 206 3 456 3 l453 0 3 -192z m442 185
c0 -5 -5 -8 -12 -8 -20 0 -58 -43 -58 -66 0 -17 -9 -25 -32 -33 -52 -16 -126
-22 -133 -10 -13 20 -55 30 -78 18 -44 -24 -49 -58 -13 -94 l24 -23 -26 -56
c-14 -31 -31 -56 -38 -56 -18 0 -18 -43 1 -79 17 -33 63 -55 104 -49 32 5 32
3 -1 -42 -10 -14 -21 -37 -23 -52 -5 -25 -2 -27 64 -42 39 -9 77 -16 86 -16 9
0 28 -9 42 -19 13 -11 30 -18 37 -15 9 3 13 -8 14 -38 2 -52 21 -73 56 -64 19
5 26 13 27 31 1 22 3 35 8 49 0 2 24 -5 51 -15 l50 -19 10 22 c6 13 27 66 49
118 l39 95 41 6 c51 7 80 33 91 84 7 31 6 38 -8 42 -18 5 -77 123 -62 123 18
0 40 33 40 59 0 51 -44 69 -98 40 -64 -33 -174 -6 -180 44 -2 19 -13 34 -33
45 -16 10 -29 19 -29 22 0 3 114 5 253 5 l252 0 -1 -45 c-8 -259 -175 -556
-401 -711 -98 -68 -264 -136 -376 -154 -67 -11 -127 -14 -132 -5 -10 16 -7
903 3 909 15 9 392 7 392 -1z m30 -53 c7 -8 10 -24 7 -36 -5 -17 2 -24 39 -40
25 -11 74 -23 110 -26 58 -5 67 -3 86 17 18 19 22 20 36 7 8 -9 12 -23 9 -31
-5 -13 -27 -16 -137 -16 -71 0 -130 -3 -131 -7 -4 -34 -18 -231 -25 -345 -4
-57 -8 -112 -9 -123 -1 -11 -3 -31 -4 -44 -1 -16 -5 -21 -10 -15 -5 5 -12 56
-16 114 -3 58 -7 119 -9 135 -4 27 -18 242 -19 273 0 9 -32 12 -127 12 -126 0
-154 7 -143 36 7 19 42 18 50 -1 4 -13 18 -15 72 -11 100 7 168 34 156 63 -14
39 39 70 65 38z m-1020 -36 l35 -20 -35 7 c-110 22 -188 -31 -177 -123 6 -52
27 -79 83 -103 42 -18 61 -36 50 -47 -3 -3 -38 7 -78 23 -94 38 -122 74 -116
151 5 56 22 83 73 114 40 25 119 24 165 -2z m-86 -55 c16 -15 22 -44 9 -44
-12 0 -43 33 -43 47 0 18 15 17 34 -3z m89 -4 c-6 -21 -40 -46 -50 -36 -3 3 2
17 11 31 20 31 46 34 39 5z m361 -41 c23 -11 24 -13 10 -35 -15 -23 -12 -44 7
-44 5 0 9 9 9 20 0 18 7 20 55 20 30 0 55 -4 55 -10 0 -5 -16 -10 -35 -10 -19
0 -35 -4 -35 -10 0 -5 14 -7 31 -5 25 3 28 1 18 -11 -6 -8 -22 -14 -35 -14
-15 0 -24 -6 -24 -15 0 -8 9 -15 20 -15 11 0 20 -7 20 -15 0 -13 -23 -15 -150
-15 -127 0 -150 2 -150 15 0 9 9 15 25 15 16 0 25 6 25 15 0 9 -9 15 -24 15
-13 0 -29 7 -36 14 -10 13 -7 14 14 10 13 -2 28 0 31 6 4 6 -8 10 -29 10 -45
0 -47 17 -3 21 53 6 77 0 77 -22 0 -10 5 -19 10 -19 14 0 13 47 -2 56 -18 11
21 34 58 34 18 0 44 -5 58 -11z m-458 -7 c6 -4 16 -17 23 -29 14 -28 -3 -31
-37 -7 -36 25 -22 61 14 36z m114 0 c0 -11 -30 -37 -52 -45 -24 -8 -23 8 2 33
20 20 50 27 50 12z m900 -81 c6 -71 -3 -82 -48 -62 -22 11 -28 10 -39 -5 -12
-16 -17 -12 -14 9 0 4 -6 7 -15 7 -9 0 -25 22 -40 55 -13 31 -24 57 -24 59 0
2 39 3 88 2 l87 -1 5 -64z m320 60 c0 -21 -47 -111 -59 -111 -9 0 -12 -11 -9
-40 2 -22 -1 -40 -6 -40 -5 0 -31 10 -57 23 l-48 22 1 55 c1 94 4 97 97 97 45
0 81 -2 81 -6z m-523 -109 c-21 -2 -41 -1 -43 1 -2 2 5 26 17 53 l22 48 22
-49 21 -50 -39 -3z m573 58 c28 -54 26 -60 -20 -60 -22 0 -40 3 -40 7 0 9 34
93 37 93 2 0 12 -18 23 -40z m-1378 3 c22 -20 23 -33 1 -33 -18 0 -53 28 -53
42 0 14 32 9 52 -9z m108 -3 c-10 -19 -56 -38 -66 -27 -10 9 35 47 56 47 18 0
19 -3 10 -20z m760 -106 c0 -23 -38 -54 -65 -54 -28 0 -80 44 -71 59 4 5 35 9
71 9 48 0 65 -4 65 -14z m556 4 c10 -16 -38 -58 -67 -58 -25 0 -69 38 -69 60
0 11 129 9 136 -2z m-1134 -26 c26 -22 58 -81 48 -87 -9 -6 -16 0 -50 47 -13
16 -27 25 -35 21 -22 -8 -67 6 -62 20 4 14 46 26 67 19 8 -3 23 -12 32 -20z
m283 16 c36 -16 26 -32 -24 -36 -36 -3 -45 -8 -62 -37 -14 -23 -39 -42 -79
-61 -61 -28 -78 -47 -60 -69 10 -12 4 -25 -12 -25 -5 0 -13 11 -18 25 -14 37
3 58 72 90 39 18 64 38 79 61 11 19 33 41 47 49 33 18 26 17 57 3z m442 -2 c0
0 4 -47 8 -103 5 -72 3 -103 -4 -103 -6 0 -11 4 -11 9 0 15 -40 24 -88 22 -48
-2 -82 6 -82 19 0 5 23 46 51 90 l51 80 37 -6 c20 -4 37 -7 38 -8z m-597 -31
c0 -24 -6 -37 -19 -45 -21 -11 -27 -1 -30 53 -1 22 3 27 24 27 22 0 25 -4 25
-35z m777 -2 c15 -10 41 -22 59 -28 l33 -10 -39 -90 c-41 -95 -54 -107 -97
-84 -25 13 -25 14 -18 109 4 52 8 101 8 108 0 17 23 15 54 -5z m-1141 -5 c1
-2 4 -37 6 -78 l3 -75 -30 0 c-36 0 -40 13 -30 101 6 56 9 62 27 59 11 -3 22
-6 24 -7z m419 -128 c10 -30 -11 -58 -66 -85 -39 -20 -49 -30 -47 -47 4 -26
-17 -35 -26 -12 -10 26 2 49 32 65 65 32 84 51 78 75 -8 30 20 34 29 4z m-71
-21 c-3 -5 -10 -7 -15 -3 -5 3 -7 10 -3 15 3 5 10 7 15 3 5 -3 7 -10 3 -15z
m54 -115 c-2 -10 -17 -28 -35 -40 -21 -14 -29 -25 -23 -34 4 -7 13 -9 19 -6
16 11 13 -10 -4 -24 -8 -7 -12 -16 -9 -21 11 -18 -8 -8 -27 14 -26 32 -23 53
12 79 17 13 35 34 40 47 11 28 33 15 27 -15z"/>
<path d="M2182 2098 c-43 -12 -73 -60 -71 -113 1 -22 -8 -66 -20 -97 l-22 -58
-65 0 c-80 0 -128 -19 -148 -59 -46 -88 11 -184 102 -172 18 3 15 -10 -28
-120 -32 -79 -38 -104 -29 -115 17 -21 47 -17 64 9 l15 24 239 0 239 0 13 -23
c13 -25 25 -29 53 -18 20 8 20 32 0 80 -9 22 -27 67 -40 101 l-23 61 34 0 c66
0 112 59 100 129 -12 73 -45 96 -147 103 l-80 5 -24 59 c-14 34 -21 68 -18 82
3 13 1 38 -5 56 -20 56 -77 84 -139 66z m84 -51 c65 -56 -9 -158 -85 -117 -29
15 -45 64 -30 92 28 52 72 62 115 25z m-85 -172 l17 -30 -89 -155 c-50 -85
-108 -188 -130 -227 -23 -40 -42 -73 -44 -73 -2 0 12 39 31 88 19 48 64 165
102 260 71 183 80 194 113 137z m221 -220 c53 -137 96 -251 94 -252 -1 -2 -56
90 -121 205 -66 114 -128 222 -138 239 -18 32 -18 33 0 39 10 3 25 9 33 14 8
5 19 8 25 6 5 -1 53 -114 107 -251z m-352 131 c-1 -6 -7 -22 -14 -35 -9 -16
-15 -20 -21 -12 -12 21 -53 31 -80 21 -49 -18 -40 -100 10 -100 16 0 25 6 25
15 0 8 -6 15 -14 15 -21 0 -28 30 -9 37 40 16 69 -43 37 -78 -21 -23 -36 -24
-73 -4 -55 28 -47 115 13 140 37 16 126 16 126 1z m198 -25 c12 -21 22 -43 22
-48 0 -9 -96 -10 -105 -2 -5 6 46 89 54 89 4 0 17 -17 29 -39z m288 7 c37 -37
38 -75 4 -109 -32 -33 -61 -37 -85 -13 -20 20 -16 63 7 78 26 16 50 -10 26
-28 -23 -17 -23 -36 0 -36 25 0 52 31 48 55 -2 10 -14 27 -27 37 -21 16 -30
17 -57 7 -17 -6 -32 -16 -32 -22 -1 -19 -30 25 -30 44 0 16 8 18 61 15 48 -3
67 -9 85 -28z m-222 -120 c12 -17 16 -48 16 -120 0 -98 0 -98 -25 -98 l-25 0
0 106 c0 95 -2 105 -17 102 -16 -3 -18 -16 -18 -103 l0 -100 -26 -3 -27 -3 0
78 c0 126 -1 133 -16 133 -19 0 -23 -22 -21 -123 l1 -88 -25 3 c-26 3 -26 4
-27 88 0 55 5 96 15 118 l15 32 82 0 c74 0 84 -2 98 -22z m-244 -163 c0 -52
-1 -55 -25 -55 -18 0 -25 5 -25 19 0 18 37 91 46 91 2 0 4 -25 4 -55z m343
-28 c1 -16 -4 -23 -20 -25 -22 -3 -23 0 -23 55 l0 58 20 -33 c11 -18 21 -43
23 -55z"/>
<path d="M2194 2005 c-8 -20 4 -35 26 -35 23 0 32 13 24 34 -8 20 -43 21 -50
1z"/>
<path d="M1450 2091 l0 -89 -57 0 c-101 0 -93 5 -93 -66 l0 -65 -93 2 c-77 1
-99 -3 -127 -19 -104 -61 -97 -217 14 -287 24 -15 48 -27 55 -27 13 0 13 -1
16 -55 2 -23 -3 -47 -11 -56 -7 -8 -15 -26 -16 -40 l-3 -24 116 -3 116 -2 -4
27 c-3 16 -17 38 -31 50 -24 20 -25 23 -10 40 11 13 15 32 12 67 -3 46 -2 50
38 85 38 35 42 42 46 97 l4 60 -32 -1 c-18 0 -31 5 -29 10 2 6 16 9 32 9 42
-3 32 15 -12 22 -64 10 -59 31 7 29 l57 -1 5 -245 5 -244 72 -3 73 -3 2 248 3
248 73 -1 c53 0 72 3 73 13 1 17 1 53 0 101 l-1 37 -75 -1 -75 -2 0 89 0 89
-75 0 -75 0 0 -89z m119 -21 c0 -41 0 -81 0 -87 1 -9 23 -13 76 -13 l75 0 0
-40 0 -40 -75 0 c-64 0 -75 -2 -76 -17 0 -10 -1 -123 -1 -251 l-1 -233 -41 3
-41 3 0 245 0 245 -77 3 -78 3 0 39 0 40 78 0 78 0 -1 83 c0 45 2 84 6 87 4 3
23 5 43 5 l36 0 -1 -75z m-266 -251 l22 -17 -27 -12 c-21 -10 -35 -9 -74 4
-66 22 -97 20 -128 -9 -19 -18 -26 -34 -26 -62 0 -45 20 -73 80 -113 41 -27
41 -36 0 -30 -25 3 -79 49 -95 80 -30 59 -10 136 43 164 40 22 177 19 205 -5z
m82 -100 c-3 -39 -35 -72 -98 -104 l-50 -24 -45 32 c-69 49 -99 97 -75 120 3
4 66 7 138 7 l133 0 -3 -31z m-75 -149 c0 -5 -23 -16 -52 -25 -63 -18 -68 -18
-68 -2 0 7 24 19 53 28 52 16 67 15 67 -1z m-3 -67 c2 -6 -20 -17 -49 -23 -60
-15 -61 -15 -66 -1 -2 5 18 16 45 24 53 16 65 16 70 0z m-7 -83 l35 -29 -35
-1 c-19 -1 -56 -2 -83 -3 -54 -2 -56 8 -7 41 42 28 48 28 90 -8z"/>
<path d="M1260 1820 c0 -5 5 -10 11 -10 5 0 7 5 4 10 -3 6 -8 10 -11 10 -2 0
-4 -4 -4 -10z"/>
<path d="M1350 899 c0 -5 5 -7 10 -4 6 3 10 8 10 11 0 2 -4 4 -10 4 -5 0 -10
-5 -10 -11z"/>
<path d="M1685 900 c3 -5 8 -10 11 -10 2 0 4 5 4 10 0 6 -5 10 -11 10 -5 0 -7
-4 -4 -10z"/>
<path d="M2484 2212 c-39 -21 -76 -36 -83 -34 -19 6 -12 -5 14 -22 17 -11 24
-12 23 -4 -4 18 24 20 47 3 16 -13 17 -19 8 -34 -10 -16 -8 -22 8 -37 17 -15
19 -15 19 -1 0 9 11 50 24 92 13 41 21 75 17 75 -3 0 -38 -18 -77 -38z m31
-32 c-5 -17 -9 -19 -21 -9 -12 10 -12 13 3 24 22 16 27 13 18 -15z"/>
<path d="M2664 2143 c7 -13 -80 -89 -108 -94 -15 -3 -11 -11 26 -51 36 -39 51
-48 79 -48 42 0 54 7 73 44 18 36 8 67 -40 121 -19 22 -33 35 -30 28z m46 -79
c12 -31 -4 -67 -37 -85 -21 -11 -29 -11 -51 2 -39 22 -36 40 14 82 48 39 60
40 74 1z"/>
<path d="M806 2001 c-4 -5 12 -38 34 -72 22 -34 40 -66 40 -71 0 -14 18 -9 24
8 4 10 0 22 -10 29 -14 9 -14 16 -5 33 12 23 47 30 53 11 2 -7 11 0 20 13 16
25 16 26 -5 26 -19 0 -68 11 -129 28 -9 3 -19 0 -22 -5z m72 -40 c10 -6 10
-10 -2 -20 -12 -10 -17 -8 -26 8 -12 23 2 29 28 12z"/>
<path d="M714 1859 c-8 -17 -11 -28 -5 -25 13 9 121 -43 128 -62 5 -11 9 -9
19 9 17 30 17 36 2 36 -24 0 -128 55 -122 64 3 5 3 9 0 9 -3 0 -13 -14 -22
-31z"/>
<path d="M2783 1838 c-12 -6 -27 -24 -34 -41 -17 -41 6 -111 39 -115 l23 -3
-26 25 c-39 39 -30 77 26 106 45 25 102 -29 77 -73 -10 -18 -1 -22 20 -8 33
20 -34 122 -80 120 -12 0 -33 -5 -45 -11z"/>
<path d="M672 1767 c-6 -7 -14 -28 -19 -47 -19 -68 19 -115 87 -108 26 2 40
11 57 37 26 39 30 76 8 84 -11 5 -13 0 -9 -22 7 -36 -24 -71 -61 -71 -37 0
-78 44 -69 73 9 30 24 48 35 41 5 -3 9 -1 9 4 0 16 -28 22 -38 9z"/>
<path d="M2788 1630 c4 -25 7 -28 23 -19 16 8 21 5 31 -15 8 -20 8 -29 -2 -41
-7 -8 -16 -12 -21 -9 -5 3 -9 -1 -8 -8 1 -18 17 -56 18 -41 1 6 30 32 66 58
36 25 65 50 65 54 0 8 -133 27 -136 20 -1 -2 -11 4 -21 13 -19 17 -19 17 -15
-12z m112 -29 c0 -5 -7 -12 -16 -15 -22 -9 -24 -8 -24 9 0 8 9 15 20 15 11 0
20 -4 20 -9z"/>
<path d="M610 1557 c0 -8 -3 -23 -7 -33 -4 -12 -3 -15 6 -10 17 11 141 -14
142 -28 1 -17 18 27 18 49 1 14 -2 16 -7 7 -6 -9 -21 -10 -68 -1 -32 6 -65 15
-71 21 -10 8 -13 6 -13 -5z"/>
<path d="M2958 1483 c6 -2 12 -16 12 -29 0 -22 -4 -24 -45 -25 -25 -1 -51 -2
-57 -3 -7 -1 -19 2 -25 7 -10 7 -13 0 -13 -29 0 -24 3 -34 9 -26 4 7 37 15 74
19 63 5 67 4 67 -15 0 -11 -6 -23 -12 -25 -7 -3 -3 -6 8 -6 16 -1 21 4 19 22
-1 12 -3 43 -4 70 -1 42 -3 47 -23 46 -13 0 -17 -3 -10 -6z"/>
<path d="M590 1419 c0 -20 -3 -46 -7 -56 -6 -16 -5 -16 10 -5 20 17 137 8 149
-11 4 -7 8 4 8 27 0 29 -3 36 -12 29 -7 -5 -22 -9 -33 -9 -15 1 -20 7 -18 29
1 17 -3 27 -12 27 -8 0 -12 -9 -10 -25 2 -22 -1 -25 -31 -25 -32 0 -33 1 -24
26 13 32 13 31 -5 31 -11 0 -15 -11 -15 -38z"/>
<path d="M2855 1285 c-17 -16 -25 -35 -25 -59 0 -48 8 -65 41 -81 42 -22 67
-18 99 14 17 16 31 24 33 17 2 -6 7 -8 11 -4 4 3 0 20 -8 37 -9 16 -16 37 -16
45 0 22 -49 56 -82 56 -17 0 -39 -10 -53 -25z m113 -28 c36 -28 -2 -87 -57
-87 -46 0 -63 11 -66 45 -6 48 78 77 123 42z"/>
<path d="M738 1291 c-5 -14 -138 -22 -138 -8 0 8 -3 7 -9 -1 -4 -7 -6 -25 -3
-39 3 -13 8 -20 11 -15 10 16 121 24 137 11 11 -9 14 -5 14 25 0 35 -5 46 -12
27z"/>
<path d="M596 1181 c-3 -4 -1 -22 4 -40 11 -38 10 -34 10 -69 0 -19 5 -29 15
-29 18 0 18 -1 5 31 -9 24 -7 26 28 32 20 4 54 8 75 8 27 1 36 5 32 14 -3 8
-5 23 -5 35 0 18 -1 19 -12 5 -18 -22 -125 -40 -132 -21 -3 7 -3 20 0 28 6 16
-11 21 -20 6z"/>
<path d="M2802 1062 c-15 -51 -15 -72 1 -72 7 0 13 12 12 28 0 24 3 27 29 24
16 -2 48 -10 70 -17 22 -8 41 -13 42 -12 1 1 4 16 8 32 4 17 3 25 -1 18 -6 -9
-24 -8 -73 4 -36 8 -67 19 -71 24 -3 5 -11 -8 -17 -29z"/>
<path d="M700 1007 c-80 -26 -75 -22 -62 -49 8 -18 11 -19 11 -5 1 9 8 17 16
17 9 0 29 7 45 15 17 9 30 14 30 12 0 -2 -15 -35 -34 -73 -18 -38 -30 -70 -25
-72 5 -2 37 6 70 18 34 11 68 19 75 16 10 -4 10 2 1 27 -7 20 -12 26 -15 16
-2 -13 -80 -54 -88 -46 -1 1 8 22 20 47 44 93 46 100 33 99 -6 0 -41 -10 -77
-22z"/>
<path d="M2759 934 c-5 -15 -12 -32 -16 -38 -4 -7 -2 -7 6 0 10 9 28 6 74 -13
34 -14 65 -29 68 -34 3 -5 11 2 17 16 15 33 15 36 -1 29 -17 -6 -133 42 -129
55 5 22 -9 10 -19 -15z"/>
<path d="M2708 808 c-42 -37 -53 -67 -33 -87 16 -15 17 -14 10 6 -10 34 37 77
73 68 39 -10 62 -34 62 -66 0 -28 -35 -63 -52 -53 -4 3 -8 1 -8 -4 0 -9 31
-26 35 -20 1 2 11 16 23 32 44 58 19 132 -48 142 -27 4 -41 0 -62 -18z"/>
<path d="M763 794 c-21 -21 -24 -32 -20 -61 7 -38 37 -78 65 -85 47 -12 113
37 106 80 -1 6 -2 19 -3 27 0 9 -12 27 -26 40 -33 34 -87 34 -122 -1z m111
-10 c23 -22 20 -60 -6 -84 -45 -42 -93 -35 -99 15 -4 32 12 56 45 71 40 17 42
17 60 -2z"/>
<path d="M2627 692 c-15 -16 -15 -19 4 -31 20 -12 20 -13 3 -32 -19 -21 -54
-26 -54 -7 0 6 -9 3 -20 -7 -25 -23 -25 -30 1 -32 11 -1 50 -12 85 -23 36 -12
67 -20 70 -17 3 2 -14 38 -36 79 -22 41 -37 78 -33 81 3 4 4 7 1 7 -3 0 -12
-8 -21 -18z m44 -93 c6 -12 7 -19 2 -17 -4 3 -16 8 -26 11 -10 4 -15 11 -12
17 10 16 23 12 36 -11z"/>
<path d="M994 631 c4 -5 -18 -29 -46 -54 -34 -29 -55 -41 -60 -34 -12 20 12
49 37 45 16 -4 22 -1 18 9 -6 16 -55 17 -71 1 -19 -19 -14 -44 13 -76 l24 -29
56 54 c33 30 62 50 68 46 7 -3 1 6 -12 20 -24 27 -37 36 -27 18z"/>
<path d="M2366 444 c-31 -21 -35 -28 -23 -37 27 -22 78 -107 71 -119 -4 -6 6
-3 22 6 51 31 66 44 60 55 -4 6 -15 2 -27 -10 l-21 -21 -15 22 c-18 25 -10 52
12 44 11 -5 14 -2 9 10 -7 19 -16 20 -32 4 -8 -8 -15 -8 -27 2 -27 22 -17 47
18 41 4 0 7 3 7 8 0 21 -18 19 -54 -5z"/>
<path d="M1184 452 c8 -13 -64 -133 -75 -126 -5 3 -9 3 -9 1 0 -16 89 -60 123
-61 77 -2 106 88 46 138 -35 30 -94 63 -85 48z m63 -54 c29 -27 29 -57 2 -92
-23 -29 -46 -33 -75 -12 -19 15 -18 16 11 70 16 31 31 56 34 56 3 0 15 -10 28
-22z"/>
<path d="M2205 355 c-16 -7 -24 -14 -17 -14 12 -1 46 -67 61 -118 l6 -22 43
19 c25 12 42 26 42 36 0 16 -1 16 -18 1 -10 -10 -24 -17 -30 -17 -13 0 -64
109 -56 121 7 11 5 11 -31 -6z"/>
<path d="M1384 341 c8 -13 -30 -123 -46 -133 -7 -3 5 -13 27 -22 46 -20 61
-20 68 -3 4 10 -2 13 -18 9 -27 -5 -36 7 -28 36 6 26 31 29 40 6 5 -13 7 -13
14 -2 11 17 11 31 1 24 -17 -10 -35 12 -28 37 4 19 11 24 26 20 11 -3 20 -10
20 -17 0 -6 4 -4 10 4 7 11 2 17 -19 26 -52 22 -74 27 -67 15z"/>
<path d="M2078 313 c-18 -4 -25 -23 -10 -23 11 0 44 -118 37 -131 -8 -11 15
-12 33 0 12 7 11 14 -2 40 -9 17 -16 34 -16 38 -1 26 -14 83 -19 82 -3 -1 -14
-3 -23 -6z"/>
<path d="M1950 281 c-27 -5 -31 -8 -17 -13 25 -11 23 -58 -3 -59 -11 -1 -28
-2 -37 -3 -14 -1 -18 7 -18 32 0 29 -3 32 -29 32 -23 0 -26 -3 -17 -14 6 -8
13 -43 14 -80 2 -65 2 -66 31 -66 24 0 26 2 16 14 -6 8 -10 25 -8 38 2 19 10
24 41 26 35 3 37 2 37 -27 0 -16 -6 -32 -12 -34 -7 -3 4 -6 26 -6 32 -1 36 1
27 13 -7 8 -13 46 -14 85 -1 39 -2 70 -2 70 0 -1 -16 -4 -35 -8z"/>
<path d="M1628 250 c-56 -56 -8 -144 76 -138 31 2 42 8 45 23 3 17 2 18 -14 5
-60 -49 -131 55 -75 108 23 21 68 19 77 -4 8 -21 23 -17 23 6 0 14 -7 21 -22
22 -13 0 -36 2 -53 3 -20 1 -38 -6 -57 -25z"/>
</g>
</svg>
